<?xml version="1.0" encoding="utf-8"?>
<!-- Generator: Adobe Illustrator 21.1.0, SVG Export Plug-In . SVG Version: 6.00 Build 0)  -->
<svg version="1.1" id="Layer_1" xmlns="http://www.w3.org/2000/svg" xmlns:xlink="http://www.w3.org/1999/xlink" x="0px" y="0px"
	 viewBox="0 0 205.4 137.7" style="enable-background:new 0 0 205.4 137.7;" xml:space="preserve">
<style type="text/css">
	.st0{fill:url(#SVGID_1_);}
	.st1{fill:url(#SVGID_2_);}
	.st2{fill:#113375;}
	.st3{fill:url(#SVGID_3_);}
	.st4{fill:url(#SVGID_4_);}
	.st5{fill:url(#SVGID_5_);}
	.st6{fill:url(#SVGID_6_);}
	.st7{fill:url(#SVGID_7_);}
	.st8{fill:url(#SVGID_8_);}
	.st9{fill:url(#SVGID_9_);}
	.st10{fill:url(#SVGID_10_);}
	.st11{fill:#1B4E9A;}
	.st12{fill:url(#SVGID_11_);}
	.st13{fill:url(#SVGID_12_);}
</style>
<g>
	<g>
		<linearGradient id="SVGID_1_" gradientUnits="userSpaceOnUse" x1="185.3225" y1="19.4608" x2="111.2067" y2="58.6484">
			<stop  offset="2.453990e-02" style="stop-color:#0058A5"/>
			<stop  offset="0.1963" style="stop-color:#98B9E3"/>
			<stop  offset="0.2062" style="stop-color:#91B3DF"/>
			<stop  offset="0.2906" style="stop-color:#5C89C7"/>
			<stop  offset="0.3641" style="stop-color:#336DB4"/>
			<stop  offset="0.4231" style="stop-color:#145DA9"/>
			<stop  offset="0.4601" style="stop-color:#0058A5"/>
			<stop  offset="0.6564" style="stop-color:#203B8F"/>
			<stop  offset="0.865" style="stop-color:#1D286B"/>
		</linearGradient>
		<path class="st0" d="M191.5,38.2L176.1,9.5l-4.9-8.9l-49.1,29.7L116.9,48l-8.7,27.6c0,0,75.6-24,82.8-34.6
			C191.8,39.8,191.6,38.7,191.5,38.2z"/>
		<linearGradient id="SVGID_2_" gradientUnits="userSpaceOnUse" x1="142.7988" y1="13.642" x2="149.6565" y2="21.6426">
			<stop  offset="0" style="stop-color:#0058A5"/>
			<stop  offset="0.411" style="stop-color:#6293CE"/>
			<stop  offset="0.865" style="stop-color:#98B9E3"/>
		</linearGradient>
		<path class="st1" d="M169,5.5c1.6-1.6,3.9-4.9,1.1-5.4c-11.1-2-48.8,30.6-47.9,29.8l-1.2,4.4c3.5-1.7,34.2-19.2,37.2-21.2
			C161.3,11.2,167.2,7.2,169,5.5z"/>
		<g>
			<g>
				<path class="st2" d="M122.2,29.9L122.2,29.9C122.2,29.9,122.2,29.9,122.2,29.9z"/>
			</g>
			<g>
				<path class="st2" d="M127.4,25.5c-3.1,2.5-5,4.2-5.2,4.3l-0.8,2.9c0,0,19.2-11.2,33.3-19.8C165,6.7,170.5,2,167.7,1
					c-0.5-0.2-1.8-0.3-3.2,0.1c-7.4,2.2-17.8,9.5-26.5,16.1C133.9,20.3,130.2,23.3,127.4,25.5z"/>
			</g>
		</g>
	</g>
	<g>
		
			<linearGradient id="SVGID_3_" gradientUnits="userSpaceOnUse" x1="203.9971" y1="98.5204" x2="105.9818" y2="53.6395" gradientTransform="matrix(0.9994 -3.330000e-02 3.330000e-02 0.9994 -4.2645 27.3645)">
			<stop  offset="0.2331" style="stop-color:#6293CE"/>
			<stop  offset="0.4294" style="stop-color:#98B9E3"/>
			<stop  offset="0.9877" style="stop-color:#6293CE"/>
		</linearGradient>
		<path class="st3" d="M110.2,48.9c0,0,27.2,10,50.6,35.7c19.7,21.6,43.3,20.4,43.3,20.4l-22.8,32.7c0,0-23.6,0.5-46.1-22.8
			c-24.1-24.9-37.8-26.3-37.8-26.3L110.2,48.9z"/>
		
			<linearGradient id="SVGID_4_" gradientUnits="userSpaceOnUse" x1="205.7377" y1="95.7224" x2="109.0634" y2="51.4555" gradientTransform="matrix(0.9994 -3.330000e-02 3.330000e-02 0.9994 -4.2645 27.3645)">
			<stop  offset="0" style="stop-color:#6690CB"/>
			<stop  offset="0.5767" style="stop-color:#0058A5"/>
			<stop  offset="0.7914" style="stop-color:#203B8F"/>
			<stop  offset="1" style="stop-color:#1A1D57"/>
		</linearGradient>
		<path class="st4" d="M113.6,45.7c0,0,27.7,13.8,48.5,37c19.5,21.8,43.3,20.4,43.3,20.4l-22.8,32.7c0,0-23.6,0.5-46.1-22.9
			C112.4,88,98.6,86.6,98.6,86.6L113.6,45.7z"/>
	</g>
	<g>
		
			<linearGradient id="SVGID_5_" gradientUnits="userSpaceOnUse" x1="20.5069" y1="142.3536" x2="72.2089" y2="101.8913" gradientTransform="matrix(0.9989 4.780000e-02 -4.780000e-02 0.9989 7.4264 -33.5472)">
			<stop  offset="0.1288" style="stop-color:#98B9E3"/>
			<stop  offset="0.816" style="stop-color:#6293CE"/>
		</linearGradient>
		<path class="st5" d="M58.3,62.8l0.1,0.1c0,0-33.2,22.6-57.1,34.1l27.8,31.6c20.7-12.2,47.9-30,65.5-47.3L58.3,62.8z"/>
		
			<linearGradient id="SVGID_6_" gradientUnits="userSpaceOnUse" x1="19.0391" y1="140.7475" x2="70.9709" y2="100.1053" gradientTransform="matrix(0.9989 4.780000e-02 -4.780000e-02 0.9989 7.4264 -33.5472)">
			<stop  offset="0.319" style="stop-color:#4A80C2"/>
			<stop  offset="0.6012" style="stop-color:#0058A5"/>
			<stop  offset="0.9202" style="stop-color:#203B8F"/>
			<stop  offset="1" style="stop-color:#1E2C72"/>
		</linearGradient>
		<path class="st6" d="M57.3,61.2l0.1,0.1c0,0-33.5,22.8-57.4,34.2l27.5,31.2c20.7-12.2,48.1-30.1,65.8-47.5L57.3,61.2z"/>
	</g>
	<linearGradient id="SVGID_7_" gradientUnits="userSpaceOnUse" x1="76.8428" y1="28.479" x2="76.8428" y2="28.479">
		<stop  offset="6.134970e-03" style="stop-color:#274190"/>
		<stop  offset="7.361960e-02" style="stop-color:#1F62AD"/>
		<stop  offset="0.3804" style="stop-color:#6694CE"/>
		<stop  offset="0.6258" style="stop-color:#0058A5"/>
		<stop  offset="0.9387" style="stop-color:#254391"/>
	</linearGradient>
	<path class="st7" d="M76.8,28.5"/>
	<g>
		
			<linearGradient id="SVGID_8_" gradientUnits="userSpaceOnUse" x1="252.9372" y1="68.4317" x2="193.0211" y2="100.1115" gradientTransform="matrix(-0.4955 -0.8686 0.8686 -0.4955 82.1073 269.4157)">
			<stop  offset="2.453990e-02" style="stop-color:#0058A5"/>
			<stop  offset="0.1963" style="stop-color:#98B9E3"/>
			<stop  offset="0.2124" style="stop-color:#91B3DF"/>
			<stop  offset="0.3499" style="stop-color:#5C89C7"/>
			<stop  offset="0.4695" style="stop-color:#336DB4"/>
			<stop  offset="0.5655" style="stop-color:#145DA9"/>
			<stop  offset="0.6258" style="stop-color:#0058A5"/>
			<stop  offset="0.8528" style="stop-color:#203B8F"/>
			<stop  offset="1" style="stop-color:#1A1D57"/>
		</linearGradient>
		<path class="st8" d="M28.7,1.2L11.2,29L6,37.5l64,36l4.6-11.8L90.2,39c0,0-46-37.9-58.9-38.9C29.9,0.2,29,0.8,28.7,1.2z"/>
		
			<linearGradient id="SVGID_9_" gradientUnits="userSpaceOnUse" x1="37.0278" y1="59.3688" x2="39.8326" y2="53.7592" gradientTransform="matrix(0.9961 8.790000e-02 -8.790000e-02 0.9961 6.4521 -4.5531)">
			<stop  offset="0" style="stop-color:#0058A5"/>
			<stop  offset="0.411" style="stop-color:#6293CE"/>
			<stop  offset="0.7914" style="stop-color:#6293CE"/>
		</linearGradient>
		<path class="st9" d="M11.1,37.2c0,0-2.9-0.9-4.4-0.3c0,0-1.4,0.3-0.8,2c4.3,11.4,64.7,35,63.5,34.6l4.5-1.1
			c-3.3-1.9-41.2-24.3-49.7-29C18.3,40.2,13.5,38.2,11.1,37.2z"/>
		<path class="st2" d="M71.6,73c0,0-62.4-37.3-63.8-32.4c-0.1,0.5,0.7,1.7,1.7,2.8c1,1,2.3,2,3.7,3c16.8,11.7,55.3,26.9,56,27.2
			L71.6,73z"/>
	</g>
	<linearGradient id="SVGID_10_" gradientUnits="userSpaceOnUse" x1="69.7363" y1="78.2355" x2="75.3525" y2="67.0031">
		<stop  offset="0" style="stop-color:#0058A5"/>
		<stop  offset="0.411" style="stop-color:#6293CE"/>
		<stop  offset="0.7914" style="stop-color:#6293CE"/>
	</linearGradient>
	<path class="st10" d="M72.4,72.9C72.4,72.9,72.4,72.9,72.4,72.9L72.4,72.9C72.4,72.9,72.4,72.9,72.4,72.9z"/>
	<path class="st2" d="M72.4,72.9C72.4,72.9,72.4,72.9,72.4,72.9C72.4,72.9,72.4,72.9,72.4,72.9z"/>
	<polygon class="st2" points="72.4,72.9 72.4,72.9 72.4,72.9 	"/>
	<path class="st2" d="M72.4,72.9L72.4,72.9C72.4,72.9,72.4,72.9,72.4,72.9C72.4,72.9,72.4,72.9,72.4,72.9z"/>
	<path class="st11" d="M102.8,90.3"/>
	<g>
		<linearGradient id="SVGID_11_" gradientUnits="userSpaceOnUse" x1="99.901" y1="26.9993" x2="84.6202" y2="83.3324">
			<stop  offset="0" style="stop-color:#0058A5"/>
			<stop  offset="4.401180e-02" style="stop-color:#0E5CA8"/>
			<stop  offset="0.103" style="stop-color:#2768B1"/>
			<stop  offset="0.1703" style="stop-color:#477EC0"/>
			<stop  offset="0.2209" style="stop-color:#6293CE"/>
			<stop  offset="0.2945" style="stop-color:#98B9E3"/>
			<stop  offset="0.4049" style="stop-color:#6293CE"/>
			<stop  offset="0.5521" style="stop-color:#203B8F"/>
			<stop  offset="0.7669" style="stop-color:#1A1D57"/>
			<stop  offset="0.9755" style="stop-color:#203B8F"/>
		</linearGradient>
		<path class="st12" d="M76.5,27.9l43.9,1l1.9,0.8c0,0-15.6,55.5-19.6,60.5l-2.2,0l-35.2-18c0,0-0.9-0.3-0.3-2L76.5,27.9z"/>
		<linearGradient id="SVGID_12_" gradientUnits="userSpaceOnUse" x1="100.7339" y1="59.6184" x2="122.3086" y2="59.6184">
			<stop  offset="0" style="stop-color:#203B8F"/>
			<stop  offset="0.7117" style="stop-color:#98B9E3"/>
			<stop  offset="1" style="stop-color:#2B6AB3"/>
		</linearGradient>
		<path class="st13" d="M111,60.4c0,0-7.7,25.5-10.3,29.9l2,0c3.9-5,19.6-60.5,19.6-60.5l-1.9-0.8C118.6,35,114.6,48.7,111,60.4z"/>
	</g>
</g>
</svg>
